<svg width="46" height="45" viewBox="0 0 46 45" fill="none" xmlns="http://www.w3.org/2000/svg">
    <g clip-path="url(#clip0_81_154)">
        <path d="M22.943 0L0 22.7552H6.65728V29.2483L17.0296 18.9609L33.6822 35.477L24.1161 44.9646H39.2291V22.7552H45.8863L22.943 0Z" fill="white"/>
        <path d="M19.3179 16.6913L6.65723 26.569V29.2483L17.0295 18.9609L33.6823 35.477L24.1161 44.9647H26.5937L35.9706 33.2074L19.3179 16.6913Z" fill="white"/>
        <path d="M33.6819 35.477L17.0293 18.9609L19.3177 16.6913L35.9703 33.2077L33.6819 35.477Z" fill="#90C5FD"/>
        <path d="M27.9882 26.8713L25.7061 24.6079L42.3752 8.07553C43.0052 7.45041 44.0269 7.45041 44.6573 8.07553C45.2876 8.70066 45.2876 9.71402 44.6573 10.3389L27.9882 26.8713Z" fill="#90C5FD"/>
        <path d="M32.5786 36.5719L15.9258 20.0558L16.4844 19.5021L33.137 36.0182L32.5786 36.5719Z" fill="#90C5FD"/>
        <path d="M31.7602 29.1256L23.4336 20.8674L24.9265 19.3866L33.2529 27.6448L31.7602 29.1256Z" fill="#3589CE"/>
    </g>
</svg>
