<svg width="36" height="36" viewBox="0 0 36 36" fill="none" xmlns="http://www.w3.org/2000/svg">
    <g clip-path="url(#clip0_75_315)">
        <path d="M17.9554 0L0 18.2042H5.21005V23.3986L13.3275 15.1687L26.36 28.3816L18.8735 35.9717H30.701V18.2042H35.911L17.9554 0Z" fill="#155DFC"/>
        <path d="M15.1183 13.353L5.20996 21.2552V23.3986L13.3274 15.1687L26.36 28.3816L18.8735 35.9717H20.8124L28.1509 26.5659L15.1183 13.353Z" fill="#155DFC"/>
        <path d="M26.3596 28.3816L13.3271 15.1687L15.1181 13.353L28.1505 26.5661L26.3596 28.3816Z" fill="#44A4FF"/>
        <path d="M21.9042 21.497L20.1182 19.6863L33.1636 6.4604C33.6566 5.9603 34.4562 5.9603 34.9496 6.4604C35.4429 6.9605 35.4429 7.77119 34.9496 8.27112L21.9042 21.497Z" fill="#44A4FF"/>
        <path d="M25.4955 29.2575L12.4629 16.0446L12.9001 15.6017L25.9325 28.8146L25.4955 29.2575Z" fill="#44A4FF"/>
        <path d="M24.8554 23.3005L18.3389 16.6939L19.5072 15.5093L26.0236 22.1158L24.8554 23.3005Z" fill="#3589CE"/>
    </g>
</svg>
